<svg width="370" height="257" viewBox="0 0 370 257" fill="none" xmlns="http://www.w3.org/2000/svg">
<path fill-rule="evenodd" clip-rule="evenodd" d="M255.277 1.79798C254.529 2.78665 233.677 25.6214 208.939 52.5416C184.2 79.4617 163.493 101.88 162.922 102.361L161.885 103.235L149.141 82.3986C140.143 67.6869 136.01 61.2814 135.077 60.6058C134.351 60.0795 133.128 59.475 132.36 59.2622C131.592 59.0498 121.181 58.6627 109.224 58.4021C97.268 58.1415 78.1531 57.746 66.7472 57.523C55.341 57.3005 45.9615 57.1689 45.9045 57.2315C45.847 57.2941 47.1502 58.4322 48.8 59.761C50.4502 61.0894 53.3104 63.8451 55.1566 65.8843C57.0025 67.9238 59.2746 70.6394 60.2055 71.9191C61.1367 73.1988 62.7838 75.7689 63.8665 77.6303C64.9488 79.4918 66.2247 81.852 66.7014 82.8758C67.1781 83.8991 68.1855 86.4692 68.9401 88.587C69.6944 90.7044 70.5372 94.0554 70.8128 96.0332C71.1792 98.6612 71.2126 100.54 70.9362 103.014C70.7285 104.875 70.206 107.921 69.7751 109.782C69.3446 111.644 68.1964 115.737 67.2236 118.878C66.2508 122.019 64.1316 127.921 62.5148 131.993C60.8976 136.065 57.2661 144.441 54.4447 150.607C51.6233 156.773 47.6661 165.15 45.6502 169.221C43.6347 173.293 40.2318 180.052 38.0886 184.24C35.9454 188.428 32.8088 194.52 31.119 197.778C29.4293 201.035 25.5384 208.46 22.4732 214.277C19.4081 220.094 15.4175 227.613 13.6058 230.987C11.7937 234.361 8.79805 239.977 6.9487 243.467C5.09936 246.958 2.74731 251.393 1.7221 253.324C0.696883 255.256 -0.075617 256.909 0.00590319 256.997C0.0870352 257.086 2.68403 255.162 5.77675 252.722C8.86948 250.282 13.0596 246.971 15.0879 245.365C17.1162 243.758 20.872 240.786 23.434 238.761C25.9961 236.736 32.1101 232.006 37.0207 228.25C41.9313 224.493 48.7441 219.341 52.1602 216.8C55.5763 214.258 60.9376 210.272 64.0742 207.94C67.2107 205.608 77.2987 198.182 86.4922 191.436C95.6854 184.691 103.207 179.062 103.207 178.927C103.207 178.792 101.723 177.582 99.9089 176.239C98.0949 174.896 96.2498 173.246 95.8092 172.571C95.3682 171.897 94.9094 170.683 94.7886 169.874C94.6586 169.001 94.9206 166.826 95.4338 164.517C95.909 162.379 97.2525 157.566 98.419 153.821C99.5855 150.075 102.816 140.543 105.597 132.637C108.378 124.731 110.921 117.688 111.248 116.984C111.574 116.281 112.109 115.372 112.437 114.965C112.764 114.557 113.337 114.224 113.709 114.224C114.199 114.224 115.288 116.235 117.663 121.522C119.466 125.536 123.1 133.674 125.738 139.608C128.375 145.541 135.317 160.77 141.162 173.449C147.008 186.128 151.843 196.559 151.907 196.629C151.971 196.699 153.063 195.558 154.334 194.094C155.605 192.63 157.958 189.909 159.564 188.047C161.169 186.186 163.776 183.116 165.356 181.226C166.936 179.336 171.106 174.386 174.622 170.227C178.138 166.067 182.084 161.427 183.39 159.914C184.697 158.402 187.585 154.977 189.808 152.304C192.031 149.63 194.811 146.444 195.985 145.224C197.159 144.004 198.17 143.166 198.231 143.362C198.292 143.559 197.376 148.003 196.193 153.238C195.011 158.473 194.044 162.876 194.044 163.021C194.044 163.167 194.961 162.878 196.082 162.38C197.203 161.881 199.343 161.12 200.837 160.69C202.717 160.147 204.741 159.924 207.403 159.966L211.251 160.026L218.235 152.35C222.077 148.128 225.141 144.589 225.046 144.485C224.95 144.381 223.744 144.678 222.365 145.146C220.987 145.613 218.549 146.1 216.947 146.228C215.013 146.382 213.059 146.234 211.125 145.789C209.523 145.421 206.92 144.425 205.34 143.578C203.34 142.505 201.618 141.121 199.677 139.024C198.142 137.367 196.237 134.794 195.444 133.305C194.65 131.816 193.645 129.341 193.209 127.805C192.773 126.269 192.297 124.661 192.15 124.231C191.931 123.589 190.954 124.535 186.689 129.519C183.833 132.857 180.688 136.541 179.7 137.704C178.713 138.867 174.05 144.388 169.338 149.972C164.627 155.557 160.425 160.461 160.001 160.87C159.246 161.601 159.128 161.427 153.982 151.986C151.096 146.69 143.753 133.22 137.664 122.051C131.576 110.882 125.936 100.544 125.131 99.0779C124.325 97.6112 123.21 95.8796 122.654 95.2302L121.642 94.0495L110.877 93.7436C104.957 93.5752 99.9357 93.5566 99.7191 93.7026C99.5025 93.8485 99.3254 94.313 99.3254 94.7352C99.3254 95.157 97.6853 100.714 95.6807 107.085C93.6757 113.455 91.3291 120.856 90.4654 123.532C89.602 126.207 87.7317 131.728 86.309 135.8C84.8867 139.872 83.3265 144.346 82.842 145.742C82.3576 147.138 79.6418 154.848 76.8068 162.876C73.9719 170.903 71.0589 178.893 70.333 180.63C69.6071 182.368 68.715 184.151 68.3505 184.593C67.986 185.034 64.3172 187.848 60.1973 190.846C55.947 193.939 52.3151 196.297 51.8015 196.297C51.3038 196.297 50.6688 195.997 50.39 195.632C49.9669 195.076 50.0616 194.362 50.9669 191.296C51.5631 189.276 53.3496 183.722 54.9369 178.952C56.5242 174.182 58.0646 169.613 58.3596 168.798C58.6542 167.984 59.3658 165.89 59.9403 164.145C60.5148 162.4 62.0808 157.831 63.4208 153.992C64.7605 150.152 67.2923 142.823 69.0465 137.704C70.8007 132.585 73.1912 125.446 74.3581 121.839C75.5254 118.233 77.4101 111.855 78.5467 107.667C79.6833 103.479 81.0983 97.5773 81.6911 94.5525C82.5932 89.9513 82.7741 87.9816 82.7982 82.4955C82.8141 78.8889 82.6732 74.817 82.4849 73.4472L82.1421 70.9562L92.772 71.2625C98.6182 71.4313 108.555 71.8074 114.853 72.0989C123.736 72.5101 126.566 72.7771 127.47 73.2885C128.111 73.6511 128.909 74.3005 129.242 74.7316C129.576 75.1622 130.788 77.3236 131.937 79.5341C133.085 81.7445 136.713 88.598 140 94.764C143.286 100.93 148.973 111.558 152.638 118.382L159.301 130.79L160.809 128.959C161.638 127.952 163.819 125.224 165.654 122.897C167.49 120.57 169.535 118 170.199 117.186C170.864 116.371 172.709 114.087 174.299 112.109C175.889 110.131 181.543 102.992 186.863 96.2447C192.183 89.497 198.715 81.2157 201.378 77.8419C204.042 74.468 206.322 71.6124 206.445 71.4961C206.568 71.3797 208.669 68.8097 211.114 65.7848C213.559 62.76 215.656 60.1899 215.773 60.0736C215.89 59.9573 220.105 54.8172 225.139 48.6512C230.173 42.4852 234.602 37.161 234.981 36.8192C235.599 36.262 235.748 36.3035 236.433 37.2266C236.932 37.898 237.128 38.6337 236.997 39.3469C236.887 39.9477 235.634 43.9527 234.214 48.2467C232.793 52.5411 230.874 58.3391 229.948 61.1312L228.265 66.2079L229.885 66.3162C230.776 66.3758 232.64 66.625 234.028 66.8704C235.416 67.1153 237.336 67.6035 238.295 67.9551C239.254 68.3067 241.008 69.157 242.193 69.8453C243.377 70.5336 245.299 71.9483 246.463 72.9886L248.58 74.8805L259.452 74.908C265.431 74.9232 277.492 75.0827 286.254 75.2625C300.312 75.5506 302.303 75.6741 303.198 76.3129C303.756 76.711 304.429 77.6088 304.695 78.3076C305.068 79.29 305.076 79.9478 304.729 81.2115C304.414 82.355 303.612 83.4668 302.053 84.9183C300.828 86.0584 295.022 91.4769 289.151 96.9592C283.28 102.442 275.485 109.759 271.831 113.22C268.176 116.681 262.761 121.814 259.797 124.628C256.833 127.441 254.205 130.011 253.957 130.339C253.709 130.667 253.198 132.268 252.822 133.896C252.446 135.525 251.184 140.761 250.019 145.53C248.854 150.3 247.811 154.679 247.701 155.261C247.512 156.26 247.542 156.281 248.238 155.641C248.642 155.267 253.779 150.603 259.653 145.276C265.527 139.948 271.99 134.148 274.016 132.386C276.042 130.625 278.835 128.233 280.223 127.069C281.61 125.906 285.628 122.581 289.151 119.68C292.674 116.778 298.176 112.392 301.379 109.932C304.582 107.473 310.084 103.367 313.607 100.809C317.13 98.2504 322.37 94.5415 325.253 92.5667C328.135 90.5918 332.939 87.394 335.928 85.4598C338.917 83.5256 343.11 80.901 345.245 79.6271C347.38 78.3529 352.358 75.5544 356.308 73.4074C360.258 71.2604 364.954 68.8575 366.745 68.0672L370 66.6309L343.259 66.3589C328.552 66.2092 299.431 65.9477 278.546 65.7781L240.574 65.4697L239.436 64.4264C238.602 63.662 238.298 63.0109 238.298 61.9917C238.298 61.2269 240.909 51.7653 244.099 40.9664C247.29 30.1675 250.858 18.3884 252.028 14.7908C253.197 11.1932 254.776 6.39319 255.537 4.12477C256.298 1.85636 256.856 0 256.778 0C256.7 0 256.025 0.809302 255.277 1.79798ZM226.244 70.2015C225.273 70.3965 223.264 71.084 221.78 71.7296C220.296 72.3752 217.861 73.6816 216.367 74.6326C214.731 75.6746 212.089 78.0415 209.715 80.5917C207.472 83.0018 204.916 86.2699 203.774 88.1872C202.672 90.0376 201.055 93.1788 200.182 95.1676C199.308 97.156 198.093 100.373 197.481 102.316C196.868 104.259 196.097 107.209 195.767 108.873C195.437 110.537 195.065 113.713 194.942 115.932C194.779 118.842 194.897 120.966 195.363 123.547C195.723 125.54 196.635 128.535 197.419 130.301C198.441 132.601 199.584 134.289 201.58 136.443C203.143 138.13 205.253 139.906 206.466 140.556C207.641 141.186 209.737 142.014 211.125 142.399C212.898 142.889 214.571 143.032 216.753 142.88C218.461 142.761 220.994 142.247 222.382 141.738C223.77 141.23 226.228 139.973 227.844 138.946C229.461 137.918 232.299 135.846 234.152 134.34C236.94 132.075 237.522 131.749 237.522 132.448C237.522 132.912 236.64 137.141 235.562 141.844C234.485 146.547 232.65 153.863 231.485 158.101C230.32 162.339 228.577 168.118 227.613 170.942C226.648 173.767 225.179 177.629 224.348 179.524C223.517 181.42 221.952 184.445 220.872 186.247C219.791 188.049 217.757 190.777 216.352 192.308C214.562 194.259 212.949 195.532 210.967 196.557C209.411 197.362 207.523 198.13 206.771 198.263C205.991 198.401 204.507 198.216 203.315 197.833C202.166 197.463 200.361 196.442 199.304 195.564C198.084 194.549 196.975 193.118 196.265 191.642C195.232 189.494 195.156 189.026 195.275 185.509C195.383 182.303 195.583 181.314 196.543 179.25C197.169 177.902 198.449 176.029 199.386 175.088C200.323 174.147 201.857 173.006 202.795 172.554C203.733 172.102 205.806 171.368 207.402 170.923C208.997 170.479 210.845 169.809 211.507 169.436C212.169 169.063 212.887 168.254 213.101 167.638C213.413 166.744 213.344 166.3 212.756 165.437C212.352 164.843 211.339 164.1 210.505 163.787C209.46 163.394 207.966 163.292 205.69 163.458C203.875 163.59 201.342 164.005 200.061 164.379C198.78 164.753 196.715 165.619 195.473 166.303C194.23 166.987 192.264 168.328 191.103 169.283C189.942 170.238 188.38 171.928 187.633 173.038C186.885 174.148 185.845 176.112 185.322 177.401C184.799 178.69 184.169 181.006 183.923 182.546C183.578 184.701 183.585 186.148 183.953 188.813C184.215 190.718 184.94 193.69 185.563 195.415C186.186 197.14 187.321 199.479 188.084 200.612C188.848 201.746 190.446 203.538 191.637 204.595C192.828 205.652 194.64 206.979 195.663 207.545C196.687 208.11 198.525 208.856 199.748 209.203C201.176 209.609 203.806 209.835 207.1 209.835C211.972 209.835 212.286 209.886 213.356 210.868C213.975 211.436 215.036 213.209 215.713 214.809C216.389 216.409 217.293 219.211 217.721 221.036C218.15 222.861 218.5 225.374 218.5 226.62C218.5 227.867 218.141 230.694 217.702 232.903C217.263 235.112 216.884 237.854 216.86 238.995C216.832 240.315 217.06 241.476 217.485 242.183C217.852 242.793 218.61 243.483 219.17 243.715C219.73 243.947 220.694 244.016 221.313 243.868C221.998 243.704 222.731 243.075 223.185 242.264C223.596 241.53 223.933 240.231 223.933 239.376C223.934 238.523 223.498 235.623 222.964 232.932C222.431 230.241 221.994 226.712 221.994 225.088C221.994 223.465 222.17 220.177 222.385 217.783C222.6 215.389 222.974 211.366 223.217 208.843C223.651 204.33 223.687 204.216 225.446 201.716C226.43 200.318 228.07 197.912 229.091 196.369C230.112 194.825 231.887 191.56 233.036 189.113C234.183 186.665 235.817 182.759 236.666 180.432C237.514 178.106 238.919 173.822 239.787 170.914C240.655 168.005 242.053 163.055 242.894 159.914C243.734 156.773 245.302 150.776 246.377 146.588C247.453 142.4 248.776 136.689 249.319 133.896C249.862 131.104 250.762 126.44 251.321 123.532C251.88 120.623 253.205 114.531 254.267 109.994C255.329 105.457 256.88 99.2695 257.712 96.2447C258.545 93.2199 259.583 89.6205 260.02 88.246C260.456 86.8719 260.813 85.2948 260.813 84.741C260.813 84.1877 260.537 83.2751 260.199 82.7133C259.861 82.1515 258.983 81.4755 258.246 81.2106C257.256 80.8544 256.584 80.8523 255.665 81.2018C254.981 81.4615 253.87 82.2564 253.196 82.9688L251.97 84.2638L250.771 82.3652C250.112 81.3211 248.506 79.3039 247.201 77.8821C245.897 76.4606 243.666 74.5454 242.243 73.6266C240.82 72.7077 238.521 71.5663 237.133 71.0903C235.746 70.6144 233.125 70.1402 231.31 70.0361C229.496 69.9324 227.216 70.0069 226.244 70.2015ZM236.141 82.8754C237.697 83.71 239.294 85.0114 240.385 86.3342C241.545 87.74 242.338 89.219 242.74 90.7226C243.072 91.9697 243.344 94.3291 243.344 95.965C243.344 97.6006 243.093 100.237 242.785 101.823C242.478 103.408 241.938 105.467 241.586 106.398C241.234 107.329 240.331 109.416 239.579 111.037C238.828 112.658 237.505 115.133 236.64 116.537C235.776 117.941 233.609 120.671 231.825 122.603C229.313 125.325 227.906 126.468 225.579 127.675C223.199 128.909 222.006 129.264 219.828 129.386C217.633 129.509 216.676 129.351 215.081 128.603C213.949 128.072 212.392 126.848 211.487 125.779C210.609 124.741 209.521 123.002 209.07 121.914C208.446 120.412 208.215 118.867 208.108 115.494C207.99 111.801 208.129 110.364 208.929 106.977C209.459 104.736 210.322 101.741 210.848 100.323C211.374 98.9036 212.569 96.284 213.503 94.5017C214.437 92.7194 216.273 90.0025 217.583 88.4647C218.893 86.9265 220.966 85.0126 222.19 84.2114C223.414 83.4101 225.311 82.4053 226.407 81.9785C227.837 81.4213 229.14 81.2496 231.023 81.3697C232.966 81.4937 234.293 81.8837 236.141 82.8754ZM185.315 203.21C185.24 203.48 184.722 205.509 184.166 207.719C183.523 210.276 182.86 212.008 182.345 212.479C181.9 212.886 181.026 213.219 180.402 213.219C179.778 213.219 178.706 212.958 178.019 212.64C177.332 212.321 174.673 210.393 172.111 208.356C169.549 206.319 167.235 204.462 166.968 204.23C166.701 203.998 166.483 203.892 166.483 203.995C166.483 204.098 167.025 204.835 167.687 205.634C168.351 206.432 170.149 208.703 171.684 210.681C173.22 212.658 175.709 216.085 177.215 218.296C178.721 220.506 180.91 223.838 182.079 225.699C183.247 227.561 185.318 230.987 186.68 233.314C188.042 235.641 191.301 241.329 193.922 245.954C196.544 250.578 198.774 254.1 198.877 253.78C198.981 253.46 200.749 247.486 202.804 240.506C204.861 233.526 207.399 224.732 208.446 220.965C209.492 217.197 210.349 213.866 210.349 213.561C210.35 213.131 209.423 213.039 206.176 213.15C203.88 213.228 201.041 213.07 199.867 212.799C198.693 212.529 196.274 211.531 194.492 210.583C192.12 209.321 190.477 208.038 188.353 205.79C186.757 204.101 185.391 202.941 185.315 203.21Z" fill="#1E1E19"/>
</svg>
